<svg width="70" height="98" viewBox="0 0 70 98" fill="none" xmlns="http://www.w3.org/2000/svg">
<g filter="url(#filter0_d_4477_151)">
<path d="M1.68671 4.28358C1.68671 2.47011 3.15682 1 4.97029 1H65.0598C66.8733 1 68.3434 2.47011 68.3434 4.28358V92.2835C68.3434 94.097 66.8733 95.5671 65.0598 95.5671H4.97029C3.15682 95.5671 1.68671 94.097 1.68671 92.2835V4.28358Z" fill="white"/>
</g>
<path d="M4.35013 12.3463C4.35013 12.0176 4.54076 11.7941 4.83 11.7941C5.0535 11.7941 5.19812 11.9124 5.36903 12.2477C5.73058 12.9511 6.33535 13.3323 7.12418 13.3323C8.32057 13.3323 9.15541 12.4909 9.15541 11.2814C9.15541 10.1244 8.34686 9.30931 7.20963 9.30931C6.69689 9.30931 6.24332 9.48022 5.86205 9.82205C5.38218 10.2691 5.25071 10.3479 5.04035 10.3479C4.66566 10.3479 4.47503 10.0521 4.50789 9.54596L4.79713 5.86476C4.83657 5.37831 5.11924 5.14824 5.68456 5.14824H9.37234C9.7536 5.14824 9.97711 5.33887 9.97711 5.66098C9.97711 5.97651 9.76018 6.154 9.37234 6.154H5.82918L5.57939 9.07923H5.64512C5.94093 8.63881 6.71004 8.32327 7.466 8.32327C9.13569 8.32327 10.3124 9.51966 10.3124 11.2222C10.3124 13.0365 9.00422 14.3249 7.17019 14.3249C5.43477 14.3249 4.35013 13.2666 4.35013 12.3463Z" fill="#211C1D"/>
<path d="M7.01843 23.3283C6.94946 23.3283 6.89356 23.2746 6.89356 23.2084C6.89356 23.0674 7.2472 22.1405 7.3326 21.5168C7.34287 21.4418 7.24768 21.412 7.20467 21.473C6.99854 21.7653 6.79075 22.078 6.22544 22.0855C5.17222 22.0993 4.56549 21.0988 4.89678 20.1884C5.05921 19.7419 7.29356 16.7612 7.59715 16.7612C7.90073 16.7612 10.1351 19.7419 10.2975 20.1884C10.6288 21.0988 10.0221 22.0993 8.96887 22.0855C8.40355 22.078 8.19576 21.7653 7.98963 21.473C7.94662 21.412 7.85144 21.4418 7.8617 21.5168C7.94711 22.1405 8.30074 23.0674 8.30074 23.2084C8.30074 23.2746 8.24485 23.3283 8.17588 23.3283H7.01843Z" fill="#211C1D"/>
<path d="M65.6799 84.2208C65.6799 84.5494 65.4893 84.7729 65.2001 84.7729C64.9766 84.7729 64.832 84.6546 64.661 84.3194C64.2995 83.616 63.6947 83.2347 62.9059 83.2347C61.7095 83.2347 60.8747 84.0761 60.8747 85.2857C60.8747 86.4426 61.6832 87.2578 62.8204 87.2578C63.3332 87.2578 63.7868 87.0868 64.168 86.745C64.6479 86.298 64.7794 86.2191 64.9897 86.2191C65.3644 86.2191 65.555 86.5149 65.5222 87.0211L65.2329 90.7023C65.1935 91.1888 64.9108 91.4188 64.3455 91.4188H60.6577C60.2765 91.4188 60.053 91.2282 60.053 90.9061C60.053 90.5906 60.2699 90.4131 60.6577 90.4131H64.2009L64.4507 87.4878H64.385C64.0891 87.9283 63.32 88.2438 62.5641 88.2438C60.8944 88.2438 59.7177 87.0474 59.7177 85.3448C59.7177 83.5305 61.0259 82.2421 62.8599 82.2421C64.5953 82.2421 65.6799 83.3005 65.6799 84.2208Z" fill="#211C1D"/>
<path d="M63.0116 73.2387C63.0806 73.2387 63.1365 73.2924 63.1365 73.3587C63.1365 73.4997 62.7829 74.4266 62.6975 75.0502C62.6872 75.1252 62.7824 75.1551 62.8254 75.0941C63.0315 74.8017 63.2393 74.489 63.8046 74.4816C64.8579 74.4677 65.4646 75.4683 65.1333 76.3787C64.9709 76.8251 62.7365 79.8059 62.4329 79.8059C62.1293 79.8059 59.895 76.8251 59.7325 76.3787C59.4013 75.4683 60.008 74.4677 61.0612 74.4816C61.6265 74.4891 61.8343 74.8017 62.0404 75.0941C62.0835 75.1551 62.1786 75.1252 62.1684 75.0502C62.083 74.4266 61.7293 73.4997 61.7293 73.3587C61.7293 73.2924 61.7852 73.2387 61.8542 73.2387H63.0116Z" fill="#211C1D"/>
<path d="M19.2056 24.6418C19.0433 24.6418 18.9118 24.5129 18.9118 24.3539C18.9118 24.0155 19.7439 21.791 19.9448 20.2942C19.969 20.1142 19.745 20.0425 19.6438 20.1889C19.1588 20.8906 18.6699 21.641 17.3397 21.6589C14.8616 21.6922 13.434 19.2909 14.2135 17.1058C14.5957 16.0344 19.853 8.88059 20.5673 8.88058C21.2816 8.88058 26.5389 16.0344 26.9211 17.1058C27.7006 19.2909 26.273 21.6922 23.7949 21.6589C22.4647 21.641 21.9758 20.8906 21.4908 20.1889C21.3896 20.0425 21.1656 20.1142 21.1898 20.2942C21.3907 21.791 22.2228 24.0155 22.2228 24.3539C22.2228 24.5129 22.0913 24.6418 21.929 24.6418H19.2056Z" fill="#211C1D"/>
<path d="M19.2056 71.9253C19.0433 71.9253 18.9118 72.0542 18.9118 72.2131C18.9118 72.5516 19.7439 74.7761 19.9448 76.2729C19.969 76.4529 19.745 76.5246 19.6438 76.3782C19.1588 75.6765 18.6699 74.9261 17.3397 74.9082C14.8616 74.8749 13.434 77.2762 14.2135 79.4612C14.5957 80.5327 19.853 87.6865 20.5673 87.6865C21.2816 87.6865 26.5389 80.5326 26.9211 79.4612C27.7006 77.2762 26.273 74.8749 23.7949 74.9082C22.4647 74.9261 21.9758 75.6765 21.4908 76.3782C21.3896 76.5246 21.1656 76.4529 21.1898 76.2729C21.3907 74.7761 22.2228 72.5516 22.2228 72.2131C22.2228 72.0542 22.0913 71.9253 21.929 71.9253H19.2056Z" fill="#211C1D"/>
<path d="M48.1011 24.6418C47.9388 24.6418 47.8073 24.5129 47.8073 24.3539C47.8073 24.0155 48.6394 21.791 48.8403 20.2942C48.8645 20.1142 48.6405 20.0425 48.5393 20.1889C48.0543 20.8906 47.5654 21.641 46.2352 21.6589C43.7571 21.6922 42.3295 19.2909 43.109 17.1058C43.4912 16.0344 48.7484 8.88059 49.4628 8.88058C50.1771 8.88058 55.4344 16.0344 55.8166 17.1058C56.5961 19.2909 55.1685 21.6922 52.6903 21.6589C51.3602 21.641 50.8713 20.8906 50.3863 20.1889C50.2851 20.0425 50.0611 20.1142 50.0853 20.2942C50.2862 21.791 51.1183 24.0155 51.1183 24.3539C51.1183 24.5129 50.9868 24.6418 50.8245 24.6418H48.1011Z" fill="#211C1D"/>
<path d="M33.6533 56.1641C33.491 56.1641 33.3595 56.0353 33.3595 55.8763C33.3595 55.5378 34.1916 53.3133 34.3926 51.8165C34.4167 51.6365 34.1928 51.5648 34.0916 51.7112C33.6065 52.4129 33.1176 53.1634 31.7875 53.1812C29.3093 53.2145 27.8817 50.8132 28.6612 48.6282C29.0434 47.5568 34.3007 40.403 35.015 40.4029C35.7293 40.4029 40.9867 47.5568 41.3689 48.6282C42.1484 50.8132 40.7208 53.2145 38.2426 53.1812C36.9125 53.1634 36.4235 52.4129 35.9385 51.7112C35.8373 51.5648 35.6134 51.6365 35.6375 51.8165C35.8385 53.3133 36.6705 55.5378 36.6705 55.8763C36.6705 56.0353 36.539 56.1641 36.3767 56.1641H33.6533Z" fill="#211C1D"/>
<path d="M48.1011 71.9253C47.9388 71.9253 47.8073 72.0542 47.8073 72.2131C47.8073 72.5516 48.6394 74.7761 48.8403 76.2729C48.8645 76.4529 48.6405 76.5246 48.5393 76.3782C48.0543 75.6765 47.5654 74.9261 46.2352 74.9082C43.7571 74.8749 42.3295 77.2762 43.109 79.4612C43.4912 80.5327 48.7484 87.6865 49.4628 87.6865C50.1771 87.6865 55.4344 80.5326 55.8166 79.4612C56.5961 77.2762 55.1685 74.8749 52.6903 74.9082C51.3602 74.9261 50.8713 75.6765 50.3863 76.3782C50.2851 76.5246 50.0611 76.4529 50.0853 76.2729C50.2862 74.7761 51.1183 72.5516 51.1183 72.2131C51.1183 72.0542 50.9868 71.9253 50.8245 71.9253H48.1011Z" fill="#211C1D"/>
<defs>
<filter id="filter0_d_4477_151" x="0.373275" y="0.343284" width="69.2835" height="97.1939" filterUnits="userSpaceOnUse" color-interpolation-filters="sRGB">
<feFlood flood-opacity="0" result="BackgroundImageFix"/>
<feColorMatrix in="SourceAlpha" type="matrix" values="0 0 0 0 0 0 0 0 0 0 0 0 0 0 0 0 0 0 127 0" result="hardAlpha"/>
<feOffset dy="0.656716"/>
<feGaussianBlur stdDeviation="0.656716"/>
<feComposite in2="hardAlpha" operator="out"/>
<feColorMatrix type="matrix" values="0 0 0 0 0.25098 0 0 0 0 0.258824 0 0 0 0 0.270588 0 0 0 1 0"/>
<feBlend mode="normal" in2="BackgroundImageFix" result="effect1_dropShadow_4477_151"/>
<feBlend mode="normal" in="SourceGraphic" in2="effect1_dropShadow_4477_151" result="shape"/>
</filter>
</defs>
</svg>
