<svg width="76" height="103" viewBox="0 0 76 103" fill="none" xmlns="http://www.w3.org/2000/svg">
<g filter="url(#filter0_d_4477_221)">
<path d="M4.68671 5.28358C4.68671 3.47011 6.15682 2 7.97029 2H68.0598C69.8733 2 71.3434 3.47011 71.3434 5.28358V93.2835C71.3434 95.097 69.8733 96.5671 68.0598 96.5671H7.97029C6.15682 96.5671 4.68671 95.097 4.68671 93.2835V5.28358Z" fill="white"/>
</g>
<path d="M7.37626 15.2198C7.04759 15.2198 6.83066 15.0291 6.83066 14.7268C6.83066 14.5953 6.86353 14.4704 6.91611 14.3126L9.61785 6.75959C9.78219 6.29944 10.0123 6.08908 10.433 6.08908C10.8537 6.08908 11.0838 6.29944 11.2481 6.75959L13.9498 14.3126C14.0024 14.4572 14.0353 14.5953 14.0353 14.7202C14.0353 15.0291 13.8184 15.2198 13.4831 15.2198C13.1676 15.2198 12.9901 15.0686 12.8652 14.6807L12.1092 12.4392H8.75014L7.99418 14.6807C7.86928 15.0752 7.6918 15.2198 7.37626 15.2198ZM9.0591 11.5123H11.8003L10.4527 7.51555H10.4067L9.0591 11.5123Z" fill="#211C1D"/>
<path d="M10.0184 24.3283C9.94946 24.3283 9.89356 24.2746 9.89356 24.2084C9.89356 24.0674 10.2472 23.1405 10.3326 22.5168C10.3429 22.4418 10.2477 22.412 10.2047 22.473C9.99855 22.7653 9.79075 23.078 9.22544 23.0855C8.17222 23.0993 7.56549 22.0988 7.89678 21.1884C8.05921 20.7419 10.2936 17.7612 10.5972 17.7612C10.9007 17.7612 13.1351 20.7419 13.2975 21.1884C13.6288 22.0988 13.0221 23.0993 11.9689 23.0855C11.4036 23.078 11.1958 22.7653 10.9896 22.473C10.9466 22.412 10.8514 22.4418 10.8617 22.5168C10.9471 23.1405 11.3007 24.0674 11.3007 24.2084C11.3007 24.2746 11.2448 24.3283 11.1759 24.3283H10.0184Z" fill="#211C1D"/>
<path d="M68.6538 83.3473C68.9825 83.3473 69.1994 83.5379 69.1994 83.8403C69.1994 83.9718 69.1666 84.0967 69.114 84.2545L66.4122 91.8075C66.2479 92.2676 66.0178 92.478 65.5971 92.478C65.1764 92.478 64.9463 92.2676 64.782 91.8075L62.0802 84.2545C62.0277 84.1098 61.9948 83.9718 61.9948 83.8469C61.9948 83.5379 62.2117 83.3473 62.547 83.3473C62.8625 83.3473 63.04 83.4985 63.1649 83.8863L63.9208 86.1279H67.2799L68.0359 83.8863C68.1608 83.4919 68.3383 83.3473 68.6538 83.3473ZM66.971 87.0548H64.2298L65.5774 91.0515H65.6234L66.971 87.0548Z" fill="#211C1D"/>
<path d="M66.0117 74.2387C66.0806 74.2387 66.1365 74.2924 66.1365 74.3587C66.1365 74.4997 65.7829 75.4266 65.6975 76.0502C65.6872 76.1252 65.7824 76.1551 65.8254 76.0941C66.0315 75.8017 66.2393 75.4891 66.8046 75.4816C67.8579 75.4677 68.4646 76.4683 68.1333 77.3787C67.9709 77.8251 65.7365 80.8059 65.4329 80.8059C65.1293 80.8059 62.895 77.8251 62.7325 77.3787C62.4013 76.4683 63.008 75.4677 64.0612 75.4816C64.6265 75.4891 64.8343 75.8017 65.0404 76.0941C65.0835 76.1551 65.1786 76.1252 65.1684 76.0502C65.083 75.4266 64.7293 74.4997 64.7293 74.3587C64.7293 74.2924 64.7852 74.2387 64.8542 74.2387H66.0117Z" fill="#211C1D"/>
<path d="M36.6533 57.1641C36.4911 57.1641 36.3595 57.0353 36.3595 56.8763C36.3595 56.5378 37.1916 54.3133 37.3926 52.8165C37.4167 52.6366 37.1928 52.5648 37.0916 52.7112C36.6066 53.4129 36.1176 54.1634 34.7875 54.1812C32.3093 54.2146 30.8817 51.8133 31.6612 49.6282C32.0434 48.5568 37.3007 41.403 38.015 41.4029C38.7294 41.4029 43.9867 48.5568 44.3689 49.6282C45.1484 51.8133 43.7208 54.2146 41.2426 54.1812C39.9125 54.1634 39.4235 53.4129 38.9385 52.7112C38.8373 52.5648 38.6134 52.6366 38.6375 52.8165C38.8385 54.3133 39.6706 56.5378 39.6706 56.8763C39.6706 57.0353 39.539 57.1641 39.3767 57.1641H36.6533Z" fill="#211C1D"/>
<defs>
<filter id="filter0_d_4477_221" x="0.686707" y="0" width="74.6566" height="102.567" filterUnits="userSpaceOnUse" color-interpolation-filters="sRGB">
<feFlood flood-opacity="0" result="BackgroundImageFix"/>
<feColorMatrix in="SourceAlpha" type="matrix" values="0 0 0 0 0 0 0 0 0 0 0 0 0 0 0 0 0 0 127 0" result="hardAlpha"/>
<feOffset dy="2"/>
<feGaussianBlur stdDeviation="2"/>
<feComposite in2="hardAlpha" operator="out"/>
<feColorMatrix type="matrix" values="0 0 0 0 0.25098 0 0 0 0 0.258824 0 0 0 0 0.270588 0 0 0 1 0"/>
<feBlend mode="normal" in2="BackgroundImageFix" result="effect1_dropShadow_4477_221"/>
<feBlend mode="normal" in="SourceGraphic" in2="effect1_dropShadow_4477_221" result="shape"/>
</filter>
</defs>
</svg>
